<svg height="32" viewBox="0 0 33.433 32" width="33.433" xmlns="http://www.w3.org/2000/svg" xmlns:xlink="http://www.w3.org/1999/xlink"><linearGradient id="a" gradientUnits="objectBoundingBox" x1=".11" x2=".835" y1=".126" y2=".964"><stop offset="0" stop-color="#1879f4"/><stop offset="1" stop-color="#a135db"/></linearGradient><path d="m16.365 1.112-4.081 8.274-9.13 1.331a2 2 0 0 0 -1.106 3.412l6.605 6.437-1.562 9.093a2 2 0 0 0 2.9 2.106l8.168-4.293 8.168 4.293a2 2 0 0 0 2.9-2.106l-1.562-9.093 6.605-6.437a2 2 0 0 0 -1.106-3.412l-9.13-1.331-4.082-8.274a2 2 0 0 0 -3.587 0z" fill="url(#a)" transform="translate(-1.441 .001)"/></svg>