<svg xmlns="http://www.w3.org/2000/svg" xmlns:xlink="http://www.w3.org/1999/xlink" width="33.433" height="32" viewBox="0 0 33.433 32"><defs><linearGradient id="a" x1="0.11" y1="0.126" x2="0.835" y2="0.964" gradientUnits="objectBoundingBox"><stop offset="0" stop-color="#1879f4"/><stop offset="1" stop-color="#a135db"/></linearGradient></defs><path d="M16.365,1.112,12.284,9.386l-9.13,1.331a2,2,0,0,0-1.106,3.412l6.605,6.437L7.091,29.659a2,2,0,0,0,2.9,2.106l8.168-4.293,8.168,4.293a2,2,0,0,0,2.9-2.106l-1.562-9.093,6.605-6.437a2,2,0,0,0-1.106-3.412l-9.13-1.331L19.952,1.112a2,2,0,0,0-3.587,0Z" transform="translate(-1.441 0.001)" fill="url(#a)"/></svg>