<svg xmlns="http://www.w3.org/2000/svg" xmlns:xlink="http://www.w3.org/1999/xlink" width="28" height="32" viewBox="0 0 28 32"><defs><linearGradient id="a" x2="0.686" y2="0.971" gradientUnits="objectBoundingBox"><stop offset="0" stop-color="#1879f4"/><stop offset="1" stop-color="#a135db"/></linearGradient></defs><path d="M28,4.571V7.429C28,9.946,21.729,12,14,12S0,9.946,0,7.429V4.571C0,2.054,6.271,0,14,0S28,2.054,28,4.571ZM28,11v6.429C28,19.946,21.729,22,14,22S0,19.946,0,17.429V11c3.008,2.071,8.513,3.036,14,3.036S24.992,13.071,28,11Zm0,10v6.429C28,29.946,21.729,32,14,32S0,29.946,0,27.429V21c3.008,2.071,8.513,3.036,14,3.036S24.992,23.071,28,21Z" fill="url(#a)"/></svg>