<svg height="32" viewBox="0 0 26.182 32" width="26.182" xmlns="http://www.w3.org/2000/svg" xmlns:xlink="http://www.w3.org/1999/xlink"><linearGradient id="a" gradientUnits="objectBoundingBox" x2=".961" y2="1.034"><stop offset="0" stop-color="#1879f4"/><stop offset="1" stop-color="#a135db"/></linearGradient><path d="m-693.651 699.383a2.523 2.523 0 0 0 -.189-.218l-.058-.058-8.6-8.6-.073-.073a1.543 1.543 0 0 0 -.451-.305.538.538 0 0 0 -.2-.058 1.009 1.009 0 0 0 -.364-.058h-11.636a4.358 4.358 0 0 0 -4.364 4.364v23.273a4.367 4.367 0 0 0 4.364 4.364h17.455a4.376 4.376 0 0 0 4.364-4.364v-17.45a1.419 1.419 0 0 0 -.248-.817zm-8.48-4.393 3.767 3.753h-3.767zm5.818 22.662a1.459 1.459 0 0 1 -1.455 1.455h-17.455a1.459 1.459 0 0 1 -1.454-1.455v-23.272a1.449 1.449 0 0 1 1.454-1.455h10.182v7.275a1.449 1.449 0 0 0 1.454 1.454h7.273zm-2.909-10.182a1.459 1.459 0 0 1 -1.455 1.455h-11.636a1.45 1.45 0 0 1 -1.455-1.455 1.44 1.44 0 0 1 1.455-1.455h11.636a1.45 1.45 0 0 1 1.455 1.455zm0 5.818a1.459 1.459 0 0 1 -1.455 1.455h-11.636a1.45 1.45 0 0 1 -1.455-1.455 1.44 1.44 0 0 1 1.455-1.455h11.636a1.45 1.45 0 0 1 1.455 1.456zm-8.727-11.636a1.459 1.459 0 0 1 -1.455 1.455h-2.909a1.45 1.45 0 0 1 -1.455-1.455 1.44 1.44 0 0 1 1.455-1.454h2.909a1.449 1.449 0 0 1 1.454 1.454z" fill="url(#a)" transform="translate(719.586 -690.016)"/></svg>