<svg xmlns="http://www.w3.org/2000/svg" xmlns:xlink="http://www.w3.org/1999/xlink" width="27.431" height="32" viewBox="0 0 27.431 32"><defs><linearGradient id="a" x2=".961" y2="1.034" gradientUnits="objectBoundingBox"><stop offset="0" stop-color="#1879f4"/><stop offset="1" stop-color="#a135db"/></linearGradient></defs><path fill="url(#a)" d="M-636.186,698.938a4.128,4.128,0,0,1,.858,1.357,4.112,4.112,0,0,1,.358,1.572v20.575a1.712,1.712,0,0,1-1.712,1.712h-24.007a1.713,1.713,0,0,1-1.712-1.712h0V693.866a1.712,1.712,0,0,1,1.712-1.712h16a4.117,4.117,0,0,1,1.572.358,4.132,4.132,0,0,1,1.357.858Zm-7.937-4.358V701.3h6.715a1.946,1.946,0,0,0-.392-.733l-5.584-5.59a1.945,1.945,0,0,0-.733-.392Zm6.859,27.291V703.582h-7.42a1.713,1.713,0,0,1-1.712-1.712h0v-7.433h-13.722v27.434h22.854Zm-17.478-4.18v1.9h5.019v-1.9h-1.342l1.839-2.876a2.475,2.475,0,0,0,.179-.294c.059-.114.1-.193.134-.241s.051-.072.062-.072h.036a.64.64,0,0,0,.089.179,1.058,1.058,0,0,0,.081.134c.03.042.065.089.107.143l.117.156,1.911,2.876h-1.357v1.894h5.206v-1.9h-1.214l-3.424-4.876,3.483-5.036h1.2v-1.911h-4.98v1.911h1.321l-1.84,2.84c-.048.083-.107.181-.179.294s-.123.193-.156.241l-.036.053h-.036a.643.643,0,0,0-.089-.179,2.161,2.161,0,0,0-.311-.411l-1.906-2.839h1.357v-1.911h-5.179v1.911h1.214l3.375,4.859-3.464,5.053h-1.215Z" transform="translate(662.401 -692.154)"/></svg>