<svg xmlns="http://www.w3.org/2000/svg" xmlns:xlink="http://www.w3.org/1999/xlink" width="32.004" height="32" viewBox="0 0 32.004 32"><defs><linearGradient id="a" x2="0.961" y2="1.034" gradientUnits="objectBoundingBox"><stop offset="0" stop-color="#1879f4"/><stop offset="1" stop-color="#a135db"/></linearGradient></defs><path d="M-670,722.013h-20.254a4.345,4.345,0,0,1-4.34-4.34V697.419a4.345,4.345,0,0,1,4.34-4.34h10.127a1.447,1.447,0,0,1,1.447,1.447,1.447,1.447,0,0,1-1.447,1.447h-10.127a1.449,1.449,0,0,0-1.447,1.447v20.254a1.449,1.449,0,0,0,1.447,1.447H-670a1.449,1.449,0,0,0,1.447-1.447V707.546A1.447,1.447,0,0,1-667.1,706.1a1.447,1.447,0,0,1,1.447,1.447v10.127A4.345,4.345,0,0,1-670,722.013Zm-14.115-8.724,5.787-1.447a1.452,1.452,0,0,0,.671-.38l13.744-13.744a4.482,4.482,0,0,0,1.324-3.193,4.482,4.482,0,0,0-1.324-3.193,4.523,4.523,0,0,0-6.386,0h0l-13.744,13.744a1.443,1.443,0,0,0-.38.671l-1.447,5.787a1.447,1.447,0,0,0,.38,1.374,1.446,1.446,0,0,0,1.023.424A1.461,1.461,0,0,0-684.111,713.289Zm15.861-19.911a1.625,1.625,0,0,1,2.294,0,1.613,1.613,0,0,1,.476,1.147,1.61,1.61,0,0,1-.476,1.147l-13.46,13.46-3.06.764.765-3.058Z" transform="translate(694.589 -690.013)" fill="url(#a)"/></svg>