<svg height="32" viewBox="0 0 32.004 32" width="32.004" xmlns="http://www.w3.org/2000/svg" xmlns:xlink="http://www.w3.org/1999/xlink"><linearGradient id="a" gradientUnits="objectBoundingBox" x2=".961" y2="1.034"><stop offset="0" stop-color="#1879f4"/><stop offset="1" stop-color="#a135db"/></linearGradient><path d="m-670 722.013h-20.254a4.345 4.345 0 0 1 -4.34-4.34v-20.254a4.345 4.345 0 0 1 4.34-4.34h10.127a1.447 1.447 0 0 1 1.447 1.447 1.447 1.447 0 0 1 -1.447 1.447h-10.127a1.449 1.449 0 0 0 -1.447 1.447v20.254a1.449 1.449 0 0 0 1.447 1.447h20.254a1.449 1.449 0 0 0 1.447-1.447v-10.128a1.447 1.447 0 0 1 1.453-1.446 1.447 1.447 0 0 1 1.447 1.447v10.127a4.345 4.345 0 0 1 -4.347 4.339zm-14.115-8.724 5.787-1.447a1.452 1.452 0 0 0 .671-.38l13.744-13.744a4.482 4.482 0 0 0 1.324-3.193 4.482 4.482 0 0 0 -1.324-3.193 4.523 4.523 0 0 0 -6.386 0l-13.744 13.744a1.443 1.443 0 0 0 -.38.671l-1.447 5.787a1.447 1.447 0 0 0 .38 1.374 1.446 1.446 0 0 0 1.023.424 1.461 1.461 0 0 0 .356-.043zm15.861-19.911a1.625 1.625 0 0 1 2.294 0 1.613 1.613 0 0 1 .476 1.147 1.61 1.61 0 0 1 -.476 1.147l-13.46 13.46-3.06.764.765-3.058z" fill="url(#a)" transform="translate(694.589 -690.013)"/></svg>