<svg xmlns="http://www.w3.org/2000/svg" xmlns:xlink="http://www.w3.org/1999/xlink" width="40" height="32" viewBox="0 0 40 32"><defs><linearGradient id="a" x2=".961" y2="1.034" gradientUnits="objectBoundingBox"><stop offset="0" stop-color="#1879f4"/><stop offset="1" stop-color="#a135db"/></linearGradient></defs><path fill="url(#a)" d="M14,16A8,8,0,1,0,6,8a8,8,0,0,0,8,8Zm6,4a3.942,3.942,0,0,1,.506-1.906A8.553,8.553,0,0,0,19.6,18H18.556a10.88,10.88,0,0,1-9.113,0H8.4A8.4,8.4,0,0,0,0,26.4V29a3,3,0,0,0,3,3H20.556A3.971,3.971,0,0,1,20,30Zm18-2H36V13a5,5,0,1,0-10,0v5H24a2,2,0,0,0-2,2V30a2,2,0,0,0,2,2H38a2,2,0,0,0,2-2V20A2,2,0,0,0,38,18Zm-7,9a2,2,0,1,1,2-2A2,2,0,0,1,31,27Zm2-9H29V13a2,2,0,0,1,4,0Z"/></svg>