<svg xmlns="http://www.w3.org/2000/svg" xmlns:xlink="http://www.w3.org/1999/xlink" width="36" height="32" viewBox="0 0 36 32"><defs><linearGradient id="a" x2="0.961" y2="1.034" gradientUnits="objectBoundingBox"><stop offset="0" stop-color="#1879f4"/><stop offset="1" stop-color="#a135db"/></linearGradient></defs><path d="M36,15a3.982,3.982,0,0,0-2-3.445V2a2.02,2.02,0,0,0-2-2,2,2,0,0,0-1.249.439L25.437,4.691A15.17,15.17,0,0,1,16,8H4a4,4,0,0,0-4,4v6a4,4,0,0,0,4,4H6.106a15.188,15.188,0,0,0-.136,2,15.833,15.833,0,0,0,1.6,6.934A1.961,1.961,0,0,0,9.342,32h4.642A1.987,1.987,0,0,0,15.6,28.84,7.959,7.959,0,0,1,13.969,24a7.563,7.563,0,0,1,.276-2H16a15.167,15.167,0,0,1,9.436,3.309l5.314,4.252A2,2,0,0,0,34,28V18.446A3.983,3.983,0,0,0,36,15Zm-6,8.839-2.066-1.653A19.175,19.175,0,0,0,16,18V12A19.175,19.175,0,0,0,27.934,7.814L30,6.161Z" fill="url(#a)"/></svg>
