<svg xmlns="http://www.w3.org/2000/svg" xmlns:xlink="http://www.w3.org/1999/xlink" width="20" height="32" viewBox="0 0 20 32"><defs><linearGradient id="a" x2="0.961" y2="1.034" gradientUnits="objectBoundingBox"><stop offset="0" stop-color="#1879f4"/><stop offset="1" stop-color="#a135db"/></linearGradient></defs><g transform="translate(-19 -2177.999)"><path d="M17,0H3A3,3,0,0,0,0,3V29a3,3,0,0,0,3,3H17a3,3,0,0,0,3-3V3A3,3,0,0,0,17,0ZM10,30a2,2,0,1,1,2-2A2,2,0,0,1,10,30Zm7-6.75a.752.752,0,0,1-.75.75H3.75A.752.752,0,0,1,3,23.25V3.75A.752.752,0,0,1,3.75,3h12.5a.752.752,0,0,1,.75.75Z" transform="translate(19 2177.999)" fill="url(#a)"/></g></svg>