<svg height="32" viewBox="0 0 20 32" width="20" xmlns="http://www.w3.org/2000/svg" xmlns:xlink="http://www.w3.org/1999/xlink"><linearGradient id="a" gradientUnits="objectBoundingBox" x2=".961" y2="1.034"><stop offset="0" stop-color="#1879f4"/><stop offset="1" stop-color="#a135db"/></linearGradient><path d="m17 0h-14a3 3 0 0 0 -3 3v26a3 3 0 0 0 3 3h14a3 3 0 0 0 3-3v-26a3 3 0 0 0 -3-3zm-7 30a2 2 0 1 1 2-2 2 2 0 0 1 -2 2zm7-6.75a.752.752 0 0 1 -.75.75h-12.5a.752.752 0 0 1 -.75-.75v-19.5a.752.752 0 0 1 .75-.75h12.5a.752.752 0 0 1 .75.75z" fill="url(#a)"/></svg>