<svg width="291" height="41" viewBox="0 0 291 41" fill="none" xmlns="http://www.w3.org/2000/svg">
<path d="M67.6061 39.933H72.9821C73.4141 39.933 73.6541 39.693 73.6541 39.261V26.013C73.6541 21.741 77.1101 19.245 80.7581 19.245C81.8621 19.245 82.6781 19.437 83.3981 19.437C83.7341 19.437 83.9741 19.293 83.9741 18.861V13.533C83.9741 13.149 83.8301 12.909 83.3981 12.813C82.8701 12.717 82.3421 12.621 81.5741 12.621C78.3581 12.621 75.1901 14.157 73.3661 17.037L73.2221 13.677C73.2221 13.197 72.8861 13.005 72.5021 13.005H67.6061C67.1741 13.005 66.9341 13.245 66.9341 13.677V39.261C66.9341 39.693 67.1741 39.933 67.6061 39.933Z" fill="#22292F"/>
<path d="M46.196 39.7861C54.836 39.7861 60.452 33.9781 60.452 25.8181C60.452 17.6101 54.836 11.8021 46.196 11.8021C37.556 11.8021 31.94 17.6101 31.94 25.8181C31.94 33.9781 37.556 39.7861 46.196 39.7861ZM38.9 25.8181C38.9 21.1621 41.876 17.9461 46.196 17.9461C50.516 17.9461 53.492 21.1621 53.492 25.8181C53.492 30.4261 50.516 33.6421 46.196 33.6421C41.876 33.6421 38.9 30.4261 38.9 25.8181Z" fill="#22292F"/>
<path d="M1.49507 39.3535H7.15907C7.54307 39.3535 7.83107 39.1135 7.83107 38.6815V27.8335H13.0151C23.0471 27.8335 28.1351 22.9375 28.1351 14.4895C28.1351 6.08948 23.0471 1.19348 13.0151 1.19348H1.49507C1.06307 1.19348 0.823067 1.43348 0.823067 1.86548V38.6815C0.823067 39.1135 1.06307 39.3535 1.49507 39.3535ZM12.7751 21.3055H7.83107V7.67348H12.7751C17.9591 7.67348 20.8871 9.83348 20.8871 14.3455C20.8871 19.1935 17.9591 21.3055 12.7751 21.3055Z" fill="#22292F"/>
<path d="M103.575 40.1781C106.647 40.1781 109.623 38.8821 111.543 35.3301C111.687 35.1381 111.735 34.9461 111.735 34.8021C111.735 34.5621 111.591 34.3701 111.351 34.2261L107.271 32.4021C106.887 32.2101 106.551 32.3541 106.359 32.7381C105.831 33.6501 105.207 34.0341 104.343 34.0341C102.231 34.0341 101.319 32.5941 101.319 29.6661V18.7701H107.703C108.135 18.7701 108.375 18.4821 108.375 18.0981V13.3941C108.375 12.9621 108.135 12.7221 107.703 12.7221H101.319V5.47412C101.319 5.09012 101.031 4.80212 100.647 4.80212H95.2233C94.7913 4.80212 94.5513 5.09012 94.5513 5.47412V12.7221H90.6153C90.1833 12.7221 89.9433 12.9621 89.9433 13.3941V18.0981C89.9433 18.4821 90.1833 18.7701 90.6153 18.7701H94.5513V29.2341C94.5513 36.5301 97.7673 40.1781 103.575 40.1781Z" fill="#22292F"/>
<path d="M129.132 39.7861C132.876 39.7861 135.996 38.2021 137.916 35.5621L138.108 38.5861C138.108 39.0661 138.396 39.2581 138.828 39.2581H143.676C144.108 39.2581 144.396 39.0181 144.396 38.5861V13.0021C144.396 12.5701 144.108 12.3301 143.676 12.3301H138.828C138.396 12.3301 138.108 12.5221 138.108 13.0021L137.916 16.0261C135.996 13.3861 132.876 11.8021 129.132 11.8021C121.452 11.8021 116.556 17.5141 116.556 25.8181C116.556 34.0741 121.452 39.7861 129.132 39.7861ZM123.516 25.8181C123.516 21.1621 126.492 17.9461 130.812 17.9461C135.132 17.9461 138.108 21.1621 138.108 25.8181C138.108 30.4261 135.132 33.6421 130.812 33.6421C126.492 33.6421 123.516 30.4261 123.516 25.8181Z" fill="#22292F"/>
<path d="M154.051 39.7781H159.427C159.859 39.7781 160.099 39.5381 160.099 39.1061V1.47412C160.099 1.04212 159.859 0.802124 159.427 0.802124H154.051C153.619 0.802124 153.379 1.04212 153.379 1.47412V39.1061C153.379 39.5381 153.619 39.7781 154.051 39.7781Z" fill="#22292F"/>
<path d="M170.854 39.7273H183.526C196.198 39.7273 202.822 32.6233 202.822 20.6713C202.822 8.62326 196.198 1.56726 183.526 1.56726H170.854C170.422 1.56726 170.182 1.80726 170.182 2.23926V39.0553C170.182 39.4873 170.422 39.7273 170.854 39.7273ZM182.758 33.1033H177.19V8.19126H182.758C191.206 8.19126 195.526 12.6553 195.526 20.6713C195.526 28.6393 191.206 33.1033 182.758 33.1033Z" fill="#22292F"/>
<path d="M222.578 39.7861C231.218 39.7861 236.834 33.9781 236.834 25.8181C236.834 17.6101 231.218 11.8021 222.578 11.8021C213.938 11.8021 208.322 17.6101 208.322 25.8181C208.322 33.9781 213.938 39.7861 222.578 39.7861ZM215.282 25.8181C215.282 21.1621 218.258 17.9461 222.578 17.9461C226.898 17.9461 229.874 21.1621 229.874 25.8181C229.874 30.4261 226.898 33.6421 222.578 33.6421C218.258 33.6421 215.282 30.4261 215.282 25.8181Z" fill="#22292F"/>
<path d="M254.815 40.1781C257.887 40.1781 260.863 38.8821 262.783 35.3301C262.927 35.1381 262.975 34.9461 262.975 34.8021C262.975 34.5621 262.831 34.3701 262.591 34.2261L258.511 32.4021C258.127 32.2101 257.791 32.3541 257.599 32.7381C257.071 33.6501 256.447 34.0341 255.583 34.0341C253.471 34.0341 252.559 32.5941 252.559 29.6661V18.7701H258.943C259.375 18.7701 259.615 18.4821 259.615 18.0981V13.3941C259.615 12.9621 259.375 12.7221 258.943 12.7221H252.559V5.47412C252.559 5.09012 252.271 4.80212 251.887 4.80212H246.463C246.031 4.80212 245.791 5.09012 245.791 5.47412V12.7221H241.855C241.423 12.7221 241.183 12.9621 241.183 13.3941V18.0981C241.183 18.4821 241.423 18.7701 241.855 18.7701H245.791V29.2341C245.791 36.5301 249.007 40.1781 254.815 40.1781Z" fill="#22292F"/>
<path d="M280.241 40.1781C286.433 40.1781 290.897 37.0101 290.897 32.0661C290.897 27.6021 288.689 24.7701 282.065 23.1381L280.817 22.8021C277.841 22.0821 276.641 21.3621 276.641 20.1141C276.641 18.7221 278.081 18.1941 279.809 18.1941C282.113 18.1941 283.505 19.2501 284.465 20.9301C284.609 21.2181 284.801 21.3621 285.041 21.3621C285.137 21.3621 285.233 21.3621 285.329 21.3141L290.081 19.7781C290.369 19.7301 290.561 19.5381 290.561 19.2981C290.561 19.2021 290.513 19.0581 290.465 18.9621C288.833 14.4021 285.137 12.1941 279.953 12.1941C273.857 12.1941 269.681 15.5061 269.681 20.1141C269.681 24.2421 272.177 27.4101 278.657 29.2341L279.953 29.6181C282.785 30.4341 283.937 31.0581 283.937 32.2101C283.937 33.7461 282.257 34.1781 280.001 34.1781C277.697 34.1781 275.825 33.4581 274.577 31.2981C274.481 31.0101 274.241 30.8181 273.953 30.8181L273.761 30.8661L269.009 32.1621C268.673 32.2581 268.481 32.4501 268.481 32.7381C268.481 32.8341 268.481 32.8821 268.529 32.9781C270.257 37.6821 274.385 40.1781 280.241 40.1781Z" fill="#22292F"/>
</svg>
