<svg width="60" height="60" viewBox="0 0 60 60" fill="none" xmlns="http://www.w3.org/2000/svg">
<path d="M43.2109 51.4657C44.6046 53.457 44.1148 56.2323 41.9077 57.2845C39.1897 58.5802 36.2687 59.432 33.2577 59.797C28.7749 60.3405 24.2287 59.7886 20.0153 58.1894C15.8018 56.5902 12.0489 53.9923 9.08365 50.622C7.09193 48.3582 5.49614 45.7921 4.3514 43.0304C3.4218 40.7877 4.93372 38.4004 7.31601 37.8422C9.69829 37.284 12.037 38.7837 13.1342 40.9503C13.8404 42.3446 14.7229 43.6504 15.7647 44.8345C17.7811 47.1263 20.333 48.8929 23.1982 49.9804C26.0634 51.0678 29.1548 51.4431 32.2031 51.0735C33.778 50.8826 35.3168 50.4958 36.7844 49.9264C39.0647 49.0417 41.8171 49.4744 43.2109 51.4657Z" fill="#1DAFDD"/>
<path d="M40.8332 8.25928C41.7564 6.00331 44.3434 4.90118 46.4157 6.16484C49.1578 7.83702 51.6074 9.96468 53.6499 12.4628C56.6211 16.0967 58.6359 20.3981 59.5093 24.972C60.3827 29.5458 60.0867 34.2456 58.6485 38.6396C57.6695 41.631 56.1824 44.4154 54.2607 46.8786C52.7544 48.8093 49.9331 48.6911 48.2553 46.909C46.5367 45.0835 46.6946 42.2124 48.065 40.1095C48.9388 38.7688 49.6374 37.3146 50.1396 35.7804C51.1176 32.7924 51.3188 29.5966 50.7249 26.4864C50.131 23.3761 48.7609 20.4512 46.7405 17.9801C45.65 16.6464 44.3888 15.4679 42.9947 14.4727C41.0182 13.0618 39.9101 10.5152 40.8332 8.25928Z" fill="#B146EC"/>
<path d="M4.80597 31.9494C2.34765 32.3457 -0.00283024 30.6674 2.55798e-06 28.1771C0.00367216 24.9512 0.56112 21.7378 1.65904 18.6797C3.26703 14.201 5.98198 10.2012 9.55089 7.05303C13.1198 3.9049 17.4265 1.71091 22.0697 0.675534C25.24 -0.0314155 28.4967 -0.182506 31.6966 0.217604C34.1667 0.526468 35.5371 3.06937 34.8363 5.45965C34.1355 7.84992 31.6194 9.16324 29.1329 9.04113C27.4248 8.95724 25.7061 9.10218 24.0233 9.47744C20.8659 10.1815 17.9373 11.6734 15.5105 13.8141C13.0836 15.9549 11.2375 18.6747 10.144 21.7203C9.56124 23.3435 9.2024 25.0312 9.07181 26.737C8.88171 29.2202 7.26428 31.553 4.80597 31.9494Z" fill="#2A6EF4"/>
</svg>
